<mxfile host="app.diagrams.net" modified="2023-09-29T19:31:34.731Z" agent="Mozilla/5.0 (Windows NT 10.0; Win64; x64) AppleWebKit/537.36 (KHTML, like Gecko) Chrome/117.0.0.0 Safari/537.36" version="22.0.0" etag="0JH1_UurDsIoZAxDfdTv" type="device">
  <diagram id="kOYIb4jXEg7VRGrzS2pS" name="PÃ¡gina-1">
    <mxGraphModel dx="1153" dy="534" grid="1" gridSize="10" guides="1" tooltips="1" connect="1" arrows="1" fold="1" page="1" pageScale="1" pageWidth="827" pageHeight="1169" math="0" shadow="0">
      <root>
        <mxCell id="0" />
        <mxCell id="1" parent="0" />
        <mxCell id="puBbxAJs-0JewWh0yyM2-4" style="edgeStyle=orthogonalEdgeStyle;rounded=0;orthogonalLoop=1;jettySize=auto;html=1;entryX=0.5;entryY=0;entryDx=0;entryDy=0;" edge="1" parent="1" source="puBbxAJs-0JewWh0yyM2-1" target="puBbxAJs-0JewWh0yyM2-2">
          <mxGeometry relative="1" as="geometry" />
        </mxCell>
        <mxCell id="puBbxAJs-0JewWh0yyM2-10" style="edgeStyle=orthogonalEdgeStyle;rounded=0;orthogonalLoop=1;jettySize=auto;html=1;entryX=0.5;entryY=0;entryDx=0;entryDy=0;exitX=1;exitY=0.5;exitDx=0;exitDy=0;" edge="1" parent="1" source="puBbxAJs-0JewWh0yyM2-1" target="puBbxAJs-0JewWh0yyM2-8">
          <mxGeometry relative="1" as="geometry" />
        </mxCell>
        <mxCell id="puBbxAJs-0JewWh0yyM2-1" value="pokemones" style="rounded=0;whiteSpace=wrap;html=1;fillColor=#f8cecc;strokeColor=#b85450;" vertex="1" parent="1">
          <mxGeometry x="340" y="140" width="120" height="60" as="geometry" />
        </mxCell>
        <mxCell id="puBbxAJs-0JewWh0yyM2-2" value="tipo pokemon" style="rounded=0;whiteSpace=wrap;html=1;fillColor=#dae8fc;strokeColor=#6c8ebf;" vertex="1" parent="1">
          <mxGeometry x="210" y="260" width="120" height="60" as="geometry" />
        </mxCell>
        <mxCell id="puBbxAJs-0JewWh0yyM2-5" style="edgeStyle=orthogonalEdgeStyle;rounded=0;orthogonalLoop=1;jettySize=auto;html=1;entryX=0;entryY=0.5;entryDx=0;entryDy=0;exitX=1;exitY=0.5;exitDx=0;exitDy=0;" edge="1" parent="1" source="puBbxAJs-0JewWh0yyM2-3" target="puBbxAJs-0JewWh0yyM2-2">
          <mxGeometry relative="1" as="geometry" />
        </mxCell>
        <mxCell id="puBbxAJs-0JewWh0yyM2-3" value="tipo" style="rounded=0;whiteSpace=wrap;html=1;fillColor=#f8cecc;strokeColor=#b85450;" vertex="1" parent="1">
          <mxGeometry x="30" y="260" width="120" height="60" as="geometry" />
        </mxCell>
        <mxCell id="puBbxAJs-0JewWh0yyM2-9" style="edgeStyle=orthogonalEdgeStyle;rounded=0;orthogonalLoop=1;jettySize=auto;html=1;exitX=0;exitY=0.5;exitDx=0;exitDy=0;" edge="1" parent="1" source="puBbxAJs-0JewWh0yyM2-7" target="puBbxAJs-0JewWh0yyM2-8">
          <mxGeometry relative="1" as="geometry" />
        </mxCell>
        <mxCell id="puBbxAJs-0JewWh0yyM2-7" value="region" style="rounded=0;whiteSpace=wrap;html=1;fillColor=#f8cecc;strokeColor=#b85450;" vertex="1" parent="1">
          <mxGeometry x="660" y="260" width="110" height="60" as="geometry" />
        </mxCell>
        <mxCell id="puBbxAJs-0JewWh0yyM2-8" value="region" style="rounded=0;whiteSpace=wrap;html=1;fillColor=#dae8fc;strokeColor=#6c8ebf;" vertex="1" parent="1">
          <mxGeometry x="450" y="260" width="120" height="60" as="geometry" />
        </mxCell>
      </root>
    </mxGraphModel>
  </diagram>
</mxfile>
